<svg width="22" height="23" viewBox="0 0 22 23" fill="none" xmlns="http://www.w3.org/2000/svg">
<path d="M3.9465 12.7862C4.15696 12.5758 6.89299 11.5234 6.89299 11.5234H7.52438H10.8918H14.2592H15.1011C15.1011 11.5234 17.8371 12.5758 18.0476 12.7862C18.258 12.9967 20.7836 20.9943 20.9941 21.2048C21.2045 21.4152 15.7325 19.5211 15.7325 19.5211L10.8918 21.2048L6.05114 19.5211C6.05114 19.5211 1 21.2048 1 20.9943C1 20.7839 3.73603 12.9967 3.9465 12.7862Z" fill="white"/>
<path d="M6.05114 19.5211C6.05114 19.5211 1 21.2048 1 20.9943C1 20.7839 3.73603 12.9967 3.9465 12.7862C4.15696 12.5758 6.89299 11.5234 6.89299 11.5234H7.52438M6.05114 19.5211L10.8918 21.2048M6.05114 19.5211L7.52438 11.5234M10.8918 21.2048L15.7325 19.5211M10.8918 21.2048V16.3641V11.5234M15.7325 19.5211C15.7325 19.5211 21.2045 21.4152 20.9941 21.2048C20.7836 20.9943 18.258 12.9967 18.0476 12.7862C17.8371 12.5758 15.1011 11.5234 15.1011 11.5234H14.2592M15.7325 19.5211L14.2592 11.5234M7.52438 11.5234H10.8918M10.8918 11.5234H14.2592" stroke="#1C1C1C" stroke-width="2"/>
<path d="M6.78246 11.3127C7.37832 12.0684 9.81052 14.5399 10.892 15.7325C11.9734 14.5399 14.4057 12.0684 15.0016 11.3127C15.8214 10.273 18.5679 6.19607 15.0016 2.68371C13.7436 1.64345 12.3652 1 10.892 1C9.41877 1 8.04048 1.64345 6.78246 2.68371C3.21611 6.19607 5.96261 10.273 6.78246 11.3127Z" fill="white" stroke="#1C1C1C" stroke-width="2"/>
<circle cx="10.8919" cy="6.89284" r="2.78835" stroke="#1C1C1C" stroke-width="2"/>
</svg>
