<svg width="22" height="23" viewBox="0 0 22 23" fill="none" xmlns="http://www.w3.org/2000/svg">
<path d="M3.9465 12.786C4.15696 12.5755 6.89299 11.5232 6.89299 11.5232H7.52438H10.8918H14.2592H15.1011C15.1011 11.5232 17.8371 12.5755 18.0476 12.786C18.258 12.9964 20.7836 20.9941 20.9941 21.2045C21.2045 21.415 15.7325 19.5208 15.7325 19.5208L10.8918 21.2045L6.05114 19.5208C6.05114 19.5208 1 21.2045 1 20.9941C1 20.7836 3.73603 12.9964 3.9465 12.786Z" fill="white"/>
<path d="M6.05114 19.5208C6.05114 19.5208 1 21.2045 1 20.9941C1 20.7836 3.73603 12.9964 3.9465 12.786C4.15696 12.5755 6.89299 11.5232 6.89299 11.5232H7.52438M6.05114 19.5208L10.8918 21.2045M6.05114 19.5208L7.52438 11.5232M10.8918 21.2045L15.7325 19.5208M10.8918 21.2045V16.3639V11.5232M15.7325 19.5208C15.7325 19.5208 21.2045 21.415 20.9941 21.2045C20.7836 20.9941 18.258 12.9964 18.0476 12.786C17.8371 12.5755 15.1011 11.5232 15.1011 11.5232H14.2592M15.7325 19.5208L14.2592 11.5232M7.52438 11.5232H10.8918M10.8918 11.5232H14.2592" stroke="#CDCDCD" stroke-width="2"/>
<path d="M6.78246 11.3127C7.37832 12.0684 9.81052 14.5399 10.892 15.7325C11.9734 14.5399 14.4057 12.0684 15.0016 11.3127C15.8214 10.273 18.5679 6.19607 15.0016 2.68371C13.7436 1.64345 12.3652 1 10.892 1C9.41877 1 8.04048 1.64345 6.78246 2.68371C3.21611 6.19607 5.96261 10.273 6.78246 11.3127Z" fill="white" stroke="#CDCDCD" stroke-width="2"/>
<circle cx="10.8919" cy="6.89309" r="2.78835" stroke="#CDCDCD" stroke-width="2"/>
</svg>
