<svg width="24" height="34" viewBox="0 0 24 34" fill="none" xmlns="http://www.w3.org/2000/svg">
<path fill-rule="evenodd" clip-rule="evenodd" d="M11.9995 0C18.6267 0 23.9991 5.47046 23.9991 12.2188C24.0004 12.2859 23.9994 12.3535 23.9974 12.4216C23.962 14.6357 23.3484 16.7065 22.3035 18.4844C21.036 21.3076 19.343 23.9983 18.2614 25.5L12.0007 34C12.0007 34 8.73914 29.2188 6.78271 26.5625C5.05884 24.2219 2.60779 20.7188 1.04358 17.5312C0.832397 16.9941 0.685425 16.4788 0.585083 15.9983C0.205322 14.8081 0 13.5378 0 12.2188C0 5.47046 5.37244 0 11.9995 0ZM12 16C14.7615 16 17 13.7615 17 11C17 8.23853 14.7615 6 12 6C9.23853 6 7 8.23853 7 11C7 13.7615 9.23853 16 12 16Z" fill="#1C1C1C"/>
</svg>
