<svg width="22" height="20" viewBox="0 0 22 20" fill="none" xmlns="http://www.w3.org/2000/svg">
<path d="M10.9997 10.8333C11.5059 10.8333 11.9163 10.4602 11.9163 9.99996C11.9163 9.53972 11.5059 9.16663 10.9997 9.16663C10.4934 9.16663 10.083 9.53972 10.083 9.99996C10.083 10.4602 10.4934 10.8333 10.9997 10.8333Z" fill="#C4C4C4" stroke="#C4C4C4" stroke-linecap="round" stroke-linejoin="round"/>
<path d="M10.9997 5.00004C11.5059 5.00004 11.9163 4.62694 11.9163 4.16671C11.9163 3.70647 11.5059 3.33337 10.9997 3.33337C10.4934 3.33337 10.083 3.70647 10.083 4.16671C10.083 4.62694 10.4934 5.00004 10.9997 5.00004Z" fill="#C4C4C4" stroke="#C4C4C4" stroke-linecap="round" stroke-linejoin="round"/>
<path d="M10.9997 16.6667C11.5059 16.6667 11.9163 16.2936 11.9163 15.8333C11.9163 15.3731 11.5059 15 10.9997 15C10.4934 15 10.083 15.3731 10.083 15.8333C10.083 16.2936 10.4934 16.6667 10.9997 16.6667Z" fill="#C4C4C4" stroke="#C4C4C4" stroke-linecap="round" stroke-linejoin="round"/>
</svg>
