<svg width="22" height="22" viewBox="0 0 22 22" fill="none" xmlns="http://www.w3.org/2000/svg">
<path d="M17.4167 2.75H4.58333C3.57081 2.75 2.75 3.57081 2.75 4.58333V17.4167C2.75 18.4292 3.57081 19.25 4.58333 19.25H17.4167C18.4292 19.25 19.25 18.4292 19.25 17.4167V4.58333C19.25 3.57081 18.4292 2.75 17.4167 2.75Z" stroke="#B4B4B4" stroke-width="1.5" stroke-linecap="round" stroke-linejoin="round"/>
<path d="M7.79199 9.16666C8.55138 9.16666 9.16699 8.55105 9.16699 7.79166C9.16699 7.03227 8.55138 6.41666 7.79199 6.41666C7.0326 6.41666 6.41699 7.03227 6.41699 7.79166C6.41699 8.55105 7.0326 9.16666 7.79199 9.16666Z" stroke="#B4B4B4" stroke-width="1.5" stroke-linecap="round" stroke-linejoin="round"/>
<path d="M19.2497 13.75L14.6663 9.16666L4.58301 19.25" stroke="#B4B4B4" stroke-width="1.5" stroke-linecap="round" stroke-linejoin="round"/>
</svg>
