<svg width="70" height="42" viewBox="0 0 70 42" fill="none" xmlns="http://www.w3.org/2000/svg">
<g filter="url(#filter0_d_657_1608)">
<path d="M47 36.9711V37H19V36.9711C10.0766 36.4535 3 29.0531 3 20C3 10.9469 10.0766 3.54654 19 3.02892V3H47V3.02892C47.3309 3.00973 47.6643 3 48 3C57.3888 3 65 10.6112 65 20C65 29.3888 57.3888 37 48 37C47.6643 37 47.3309 36.9903 47 36.9711Z" fill="#CDCDCD"/>
</g>
<circle cx="20" cy="20" r="12" fill="white"/>
<path d="M51.5484 20C51.5484 22.5104 49.5133 24.5455 47.003 24.5455C44.4926 24.5455 42.4575 22.5104 42.4575 20C42.4575 17.4896 44.4926 15.4545 47.003 15.4545C49.5133 15.4545 51.5484 17.4896 51.5484 20Z" fill="#FFE99A"/>
<path fill-rule="evenodd" clip-rule="evenodd" d="M47.003 10C47.505 10 47.912 10.407 47.912 10.9091L47.912 12.5758C47.912 13.0778 47.505 13.4848 47.003 13.4848C46.5009 13.4848 46.0939 13.0778 46.0939 12.5758V10.9091C46.0939 10.407 46.5009 10 47.003 10Z" fill="#FFE99A"/>
<path fill-rule="evenodd" clip-rule="evenodd" d="M39.9296 12.9289C40.2846 12.5739 40.8602 12.5739 41.2153 12.9289L42.3938 14.1074C42.7488 14.4624 42.7488 15.038 42.3938 15.393C42.0388 15.7481 41.4632 15.7481 41.1081 15.393L39.9296 14.2145C39.5746 13.8595 39.5746 13.2839 39.9296 12.9289Z" fill="#FFE99A"/>
<path fill-rule="evenodd" clip-rule="evenodd" d="M37 20.0004C37 19.4983 37.407 19.0913 37.9091 19.0913H39.5758C40.0778 19.0913 40.4848 19.4983 40.4848 20.0004C40.4848 20.5024 40.0778 20.9095 39.5758 20.9095H37.9091C37.407 20.9095 37 20.5024 37 20.0004Z" fill="#FFE99A"/>
<path fill-rule="evenodd" clip-rule="evenodd" d="M39.9296 27.0715C39.5746 26.7165 39.5746 26.1409 39.9296 25.7858L41.1081 24.6073C41.4632 24.2523 42.0388 24.2523 42.3938 24.6073C42.7488 24.9624 42.7488 25.538 42.3938 25.893L41.2153 27.0715C40.8602 27.4265 40.2846 27.4265 39.9296 27.0715Z" fill="#FFE99A"/>
<path fill-rule="evenodd" clip-rule="evenodd" d="M47 30C46.4979 30 46.0909 29.593 46.0909 29.0909V27.4242C46.0909 26.9222 46.4979 26.5152 47 26.5152C47.5021 26.5152 47.9091 26.9222 47.9091 27.4242V29.0909C47.9091 29.593 47.5021 30 47 30Z" fill="#FFE99A"/>
<path fill-rule="evenodd" clip-rule="evenodd" d="M54.0704 27.0711C53.7154 27.4261 53.1398 27.4261 52.7847 27.0711L51.6062 25.8926C51.2512 25.5376 51.2512 24.962 51.6062 24.607C51.9612 24.2519 52.5368 24.2519 52.8919 24.607L54.0704 25.7855C54.4254 26.1405 54.4254 26.7161 54.0704 27.0711Z" fill="#FFE99A"/>
<path fill-rule="evenodd" clip-rule="evenodd" d="M57 19.9996C57 20.5017 56.593 20.9087 56.0909 20.9087H54.4242C53.9222 20.9087 53.5152 20.5017 53.5152 19.9996C53.5152 19.4976 53.9222 19.0905 54.4242 19.0905H56.0909C56.593 19.0905 57 19.4976 57 19.9996Z" fill="#FFE99A"/>
<path fill-rule="evenodd" clip-rule="evenodd" d="M54.0704 12.9289C54.4254 13.2839 54.4254 13.8595 54.0704 14.2145L52.8919 15.393C52.5368 15.7481 51.9612 15.7481 51.6062 15.393C51.2512 15.038 51.2512 14.4624 51.6062 14.1074L52.7847 12.9289C53.1398 12.5739 53.7154 12.5739 54.0704 12.9289Z" fill="#FFE99A"/>
<path fill-rule="evenodd" clip-rule="evenodd" d="M47 10.0007C47.5021 10.0007 47.9091 10.4078 47.9091 10.9098V12.5765C47.9091 13.0786 47.5021 13.4856 47 13.4856C46.4979 13.4856 46.0909 13.0786 46.0909 12.5765V10.9098C46.0909 10.4078 46.4979 10.0007 47 10.0007Z" fill="#FFE99A"/>
<path fill-rule="evenodd" clip-rule="evenodd" d="M39.9296 12.9289C40.2846 12.5739 40.8602 12.5739 41.2153 12.9289L42.3938 14.1074C42.7488 14.4624 42.7488 15.038 42.3938 15.393C42.0388 15.7481 41.4632 15.7481 41.1081 15.393L39.9296 14.2145C39.5746 13.8595 39.5746 13.2839 39.9296 12.9289Z" fill="#FFE99A"/>
<path fill-rule="evenodd" clip-rule="evenodd" d="M37 20.0004C37 19.4983 37.407 19.0913 37.9091 19.0913H39.5758C40.0778 19.0913 40.4848 19.4983 40.4848 20.0004C40.4848 20.5024 40.0778 20.9095 39.5758 20.9095H37.9091C37.407 20.9095 37 20.5024 37 20.0004Z" fill="#FFE99A"/>
<path d="M26.2809 24.574C26.1518 24.574 26.0227 24.574 25.8855 24.574C23.7312 24.574 21.7061 23.6872 20.1811 22.0842C18.6562 20.4812 17.8251 18.3324 17.8251 16.0558C17.8251 14.7597 18.0994 13.5063 18.6077 12.3722C18.8336 11.8691 19.1079 11.3916 19.4307 10.9482C18.8659 11.0079 18.3253 11.1358 17.8008 11.3064C14.3394 12.466 11.8301 15.8767 11.8301 19.9184C11.8301 24.9066 15.6546 28.9482 20.3747 28.9482C22.989 28.9482 25.3127 27.7119 26.886 25.7678C27.241 25.3244 27.5638 24.8383 27.8301 24.3182C27.3298 24.4546 26.8134 24.5399 26.2809 24.557V24.574Z" fill="white"/>
<defs>
<filter id="filter0_d_657_1608" x="0" y="0" width="70" height="42" filterUnits="userSpaceOnUse" color-interpolation-filters="sRGB">
<feFlood flood-opacity="0" result="BackgroundImageFix"/>
<feColorMatrix in="SourceAlpha" type="matrix" values="0 0 0 0 0 0 0 0 0 0 0 0 0 0 0 0 0 0 127 0" result="hardAlpha"/>
<feOffset dx="1" dy="1"/>
<feGaussianBlur stdDeviation="2"/>
<feComposite in2="hardAlpha" operator="out"/>
<feColorMatrix type="matrix" values="0 0 0 0 0 0 0 0 0 0 0 0 0 0 0 0 0 0 0.25 0"/>
<feBlend mode="normal" in2="BackgroundImageFix" result="effect1_dropShadow_657_1608"/>
<feBlend mode="normal" in="SourceGraphic" in2="effect1_dropShadow_657_1608" result="shape"/>
</filter>
</defs>
</svg>
