<svg width="145" height="145" viewBox="0 0 145 145" fill="none" xmlns="http://www.w3.org/2000/svg">
<path d="M38 5H5V38" stroke="white" stroke-width="10"/>
<path d="M107 5H140V38" stroke="white" stroke-width="10"/>
<path d="M140 107V140H107" stroke="white" stroke-width="10"/>
<path d="M1.61719 103H6.69531V93.4297H12.1641C18.6875 93.4297 22.1836 89.5039 22.2031 84.0938C22.1836 78.6641 18.7266 74.7188 12.2422 74.7188H1.61719V103ZM6.69531 89.25V78.9766H11.4609C15.2891 78.9766 17.0078 81.0664 17.0078 84.0938C17.0078 87.082 15.2891 89.2305 11.4609 89.25H6.69531Z" fill="white"/>
<path d="M56.5391 88.8594C56.5586 79.7188 50.9727 74.3281 43.5703 74.3281C36.1289 74.3281 30.582 79.7188 30.6016 88.8594C30.582 97.9805 36.1289 103.391 43.5703 103.391C50.9727 103.391 56.5586 98 56.5391 88.8594ZM35.7188 88.8594C35.6992 82.3945 38.9609 78.8984 43.5703 78.8984C48.1992 78.8984 51.4414 82.3945 51.4219 88.8594C51.4414 95.3242 48.1992 98.8203 43.5703 98.8203C38.9609 98.8203 35.6992 95.3242 35.7188 88.8594Z" fill="white"/>
<path d="M1.61719 143H6.69531V132.648H12.0078L17.5547 143H23.2188L17.1055 131.789C20.4258 130.441 22.1836 127.59 22.2031 123.742C22.1836 118.352 18.7266 114.719 12.2422 114.719H1.61719V143ZM6.69531 128.391V118.977H11.4609C15.2891 118.977 17.0078 120.734 17.0078 123.742C17.0078 126.77 15.2891 128.41 11.4609 128.391H6.69531Z" fill="white"/>
<path d="M34.5781 143H53.0547V138.703H39.6562V130.969H52V126.711H39.6562V118.977H52.9766V114.719H34.5781V143Z" fill="white"/>
<rect x="65" y="135" width="8" height="8" rx="3" fill="#FF1818"/>
</svg>
