<svg width="145" height="148" viewBox="0 0 145 148" fill="none" xmlns="http://www.w3.org/2000/svg">
<path d="M38 5H5V38" stroke="white" stroke-width="10"/>
<path d="M107 5H140V38" stroke="white" stroke-width="10"/>
<path d="M140 107V140H107" stroke="white" stroke-width="10"/>
<rect x="62" y="136" width="8" height="8" rx="3" fill="#FF1818"/>
<path d="M36.8658 80.75H48.5533V85H53.3013V80.75H56.356V76.7324H53.3013V60.9609H47.0259L36.8658 76.7988V80.75ZM41.9127 76.7324V76.5332L48.3873 66.4395H48.6197V76.7324H41.9127ZM72 85.332C78.0098 85.332 81.6621 80.8828 81.6621 72.9805C81.6621 65.1279 77.9932 60.6289 72 60.6289C66.0068 60.6289 62.3379 65.1279 62.3379 72.9805C62.3379 80.8496 65.9736 85.332 72 85.332ZM67.4512 72.9805C67.4512 67.4854 69.2275 64.7295 72 64.7129C74.7725 64.7295 76.5654 67.4854 76.5488 72.9805C76.5654 78.5254 74.7891 81.2148 72 81.2148C69.2109 81.2148 67.418 78.5254 67.4512 72.9805ZM87.7768 80.75H99.4643V85H104.212V80.75H107.267V76.7324H104.212V60.9609H97.937L87.7768 76.7988V80.75ZM92.8237 76.7324V76.5332L99.2983 66.4395H99.5307V76.7324H92.8237Z" fill="#FF1818"/>
<path d="M12.6895 110.273H10.0703V118.359H9.94727L4.39258 110.273H2.07227V123H4.70898V114.914H4.81445L10.4043 123H12.6895V110.273ZM19.0703 123.193C21.9619 123.185 23.7549 121.207 23.7637 118.254C23.7549 115.31 21.9619 113.332 19.0703 113.332C16.1875 113.332 14.3857 115.31 14.3945 118.254C14.3857 121.207 16.1875 123.185 19.0703 123.193ZM17.0312 118.254C17.0312 116.575 17.7256 115.318 19.0879 115.318C20.415 115.318 21.1182 116.575 21.1094 118.254C21.1182 119.924 20.415 121.163 19.0879 121.172C17.7256 121.163 17.0312 119.924 17.0312 118.254ZM30.4258 113.455H28.6328V111.17H26.0312V113.455H24.7129V115.406H26.0312V120.434C26.0137 122.288 27.2969 123.132 29.1777 123.123C29.8193 123.132 30.2852 123.079 30.5664 123.035V120.979C30.25 121.005 29.793 121.031 29.5293 121.031C29.002 121.014 28.624 120.829 28.6328 120.064V115.406H30.4258V113.455ZM2.07227 144H4.70898V138.727H9.91211V136.547H4.70898V133.453H10.457V131.273H2.07227V144ZM15.7305 144.193C18.6221 144.185 20.415 142.207 20.4238 139.254C20.415 136.31 18.6221 134.332 15.7305 134.332C12.8477 134.332 11.0459 136.31 11.0547 139.254C11.0459 142.207 12.8477 144.185 15.7305 144.193ZM13.6914 139.254C13.6914 137.575 14.3857 136.318 15.748 136.318C17.0752 136.318 17.7783 137.575 17.7695 139.254C17.7783 140.924 17.0752 142.163 15.748 142.172C14.3857 142.163 13.6914 140.924 13.6914 139.254ZM28.1758 139.939C28.1758 141.24 27.2793 141.917 26.3301 141.926C25.3105 141.917 24.6602 141.214 24.6602 140.08V134.455H22.0586V140.537C22.0586 142.77 23.3682 144.123 25.2754 144.123C26.7168 144.123 27.7451 143.385 28.1758 142.277H28.2812V144H30.7773V134.455H28.1758V139.939ZM35.4004 138.48C35.4004 137.224 36.1475 136.494 37.2285 136.494C38.3096 136.494 38.9424 137.197 38.9512 138.375V144H41.5352V137.918C41.5439 135.694 40.2432 134.332 38.248 134.332C36.833 134.332 35.8135 135.026 35.3828 136.125H35.2773V134.455H32.7988V144H35.4004V138.48ZM47.0723 144.158C48.6279 144.158 49.4189 143.262 49.7793 142.471H49.9023V144H52.4688V131.273H49.8672V136.055H49.7793C49.4365 135.281 48.6719 134.332 47.0723 134.332C44.9629 134.332 43.1875 135.967 43.1875 139.236C43.1875 142.427 44.8926 144.158 47.0723 144.158ZM45.8594 139.219C45.8506 137.558 46.5537 136.406 47.8809 136.406C49.1904 136.406 49.9199 137.505 49.9199 139.219C49.9199 140.941 49.1816 142.075 47.8809 142.084C46.5625 142.075 45.8506 140.906 45.8594 139.219Z" fill="white"/>
</svg>
