<svg width="46" height="46" viewBox="0 0 46 46" fill="none" xmlns="http://www.w3.org/2000/svg">
<g filter="url(#filter0_d_657_1772)">
<circle cx="22" cy="22" r="19" fill="#CDCDCD" fill-opacity="0.8"/>
<path d="M27.9129 22C27.9129 25.2635 25.2673 27.9091 22.0038 27.9091C18.7403 27.9091 16.0948 25.2635 16.0948 22C16.0948 18.7365 18.7403 16.0909 22.0038 16.0909C25.2673 16.0909 27.9129 18.7365 27.9129 22Z" fill="#FFE99A"/>
<path fill-rule="evenodd" clip-rule="evenodd" d="M22.0038 9C22.6565 9 23.1857 9.52912 23.1857 10.1818L23.1857 12.3485C23.1857 13.0012 22.6565 13.5303 22.0038 13.5303C21.3511 13.5303 20.822 13.0012 20.822 12.3485V10.1818C20.822 9.52912 21.3511 9 22.0038 9Z" fill="#FFE99A"/>
<path fill-rule="evenodd" clip-rule="evenodd" d="M12.8085 12.8075C13.27 12.346 14.0183 12.346 14.4798 12.8075L16.0119 14.3396C16.4734 14.8011 16.4734 15.5494 16.0119 16.011C15.5504 16.4725 14.8021 16.4725 14.3406 16.011L12.8085 14.4789C12.347 14.0174 12.347 13.2691 12.8085 12.8075Z" fill="#FFE99A"/>
<path fill-rule="evenodd" clip-rule="evenodd" d="M9 22.0005C9 21.3478 9.52912 20.8187 10.1818 20.8187H12.3485C13.0012 20.8187 13.5303 21.3478 13.5303 22.0005C13.5303 22.6532 13.0012 23.1823 12.3485 23.1823H10.1818C9.52912 23.1823 9 22.6532 9 22.0005Z" fill="#FFE99A"/>
<path fill-rule="evenodd" clip-rule="evenodd" d="M12.8085 31.1929C12.347 30.7314 12.347 29.9831 12.8085 29.5216L14.3406 27.9895C14.8021 27.528 15.5504 27.528 16.0119 27.9895C16.4734 28.4511 16.4734 29.1993 16.0119 29.6609L14.4798 31.1929C14.0183 31.6545 13.27 31.6545 12.8085 31.1929Z" fill="#FFE99A"/>
<path fill-rule="evenodd" clip-rule="evenodd" d="M22 35C21.3473 35 20.8182 34.4709 20.8182 33.8182V31.6515C20.8182 30.9988 21.3473 30.4697 22 30.4697C22.6527 30.4697 23.1818 30.9988 23.1818 31.6515V33.8182C23.1818 34.4709 22.6527 35 22 35Z" fill="#FFE99A"/>
<path fill-rule="evenodd" clip-rule="evenodd" d="M31.1915 31.1925C30.73 31.654 29.9817 31.654 29.5202 31.1925L27.9881 29.6604C27.5266 29.1989 27.5266 28.4506 27.9881 27.989C28.4496 27.5275 29.1979 27.5275 29.6594 27.989L31.1915 29.5211C31.653 29.9826 31.653 30.7309 31.1915 31.1925Z" fill="#FFE99A"/>
<path fill-rule="evenodd" clip-rule="evenodd" d="M35 21.9995C35 22.6522 34.4709 23.1813 33.8182 23.1813H31.6515C30.9988 23.1813 30.4697 22.6522 30.4697 21.9995C30.4697 21.3468 30.9988 20.8177 31.6515 20.8177H33.8182C34.4709 20.8177 35 21.3468 35 21.9995Z" fill="#FFE99A"/>
<path fill-rule="evenodd" clip-rule="evenodd" d="M31.1915 12.8075C31.653 13.2691 31.653 14.0174 31.1915 14.4789L29.6594 16.011C29.1979 16.4725 28.4496 16.4725 27.9881 16.011C27.5266 15.5494 27.5266 14.8011 27.9881 14.3396L29.5202 12.8075C29.9817 12.346 30.73 12.346 31.1915 12.8075Z" fill="#FFE99A"/>
<path fill-rule="evenodd" clip-rule="evenodd" d="M22 9.00096C22.6527 9.00096 23.1818 9.53008 23.1818 10.1828V12.3494C23.1818 13.0021 22.6527 13.5313 22 13.5313C21.3473 13.5313 20.8182 13.0021 20.8182 12.3494V10.1828C20.8182 9.53008 21.3473 9.00096 22 9.00096Z" fill="#FFE99A"/>
<path fill-rule="evenodd" clip-rule="evenodd" d="M12.8085 12.8075C13.27 12.346 14.0183 12.346 14.4798 12.8075L16.0119 14.3396C16.4734 14.8011 16.4734 15.5494 16.0119 16.011C15.5504 16.4725 14.8021 16.4725 14.3406 16.011L12.8085 14.4789C12.347 14.0174 12.347 13.2691 12.8085 12.8075Z" fill="#FFE99A"/>
<path fill-rule="evenodd" clip-rule="evenodd" d="M9 22.0005C9 21.3478 9.52912 20.8187 10.1818 20.8187H12.3485C13.0012 20.8187 13.5303 21.3478 13.5303 22.0005C13.5303 22.6532 13.0012 23.1823 12.3485 23.1823H10.1818C9.52912 23.1823 9 22.6532 9 22.0005Z" fill="#FFE99A"/>
</g>
<defs>
<filter id="filter0_d_657_1772" x="0" y="0" width="46" height="46" filterUnits="userSpaceOnUse" color-interpolation-filters="sRGB">
<feFlood flood-opacity="0" result="BackgroundImageFix"/>
<feColorMatrix in="SourceAlpha" type="matrix" values="0 0 0 0 0 0 0 0 0 0 0 0 0 0 0 0 0 0 127 0" result="hardAlpha"/>
<feOffset dx="1" dy="1"/>
<feGaussianBlur stdDeviation="2"/>
<feComposite in2="hardAlpha" operator="out"/>
<feColorMatrix type="matrix" values="0 0 0 0 0 0 0 0 0 0 0 0 0 0 0 0 0 0 0.25 0"/>
<feBlend mode="normal" in2="BackgroundImageFix" result="effect1_dropShadow_657_1772"/>
<feBlend mode="normal" in="SourceGraphic" in2="effect1_dropShadow_657_1772" result="shape"/>
</filter>
</defs>
</svg>
