<svg width="22" height="23" viewBox="0 0 22 23" fill="none" xmlns="http://www.w3.org/2000/svg">
<path fill-rule="evenodd" clip-rule="evenodd" d="M10.8924 0C9.11391 0 7.51755 0.778618 6.14564 1.91306L6.11216 1.94075L6.0812 1.97123C4.01567 4.00549 3.75709 6.26982 4.16064 8.13675C4.41708 9.3231 4.93611 10.3436 5.38932 11.0655C5.38485 11.0594 5.38051 11.053 5.37632 11.0463C5.29252 11.0801 5.20717 11.1146 5.12138 11.1496C4.76277 11.2957 4.38852 11.452 4.08663 11.5874C3.93688 11.6545 3.79396 11.7213 3.67558 11.7823C3.61693 11.8125 3.55357 11.8468 3.49367 11.8833C3.45233 11.9085 3.3421 11.9762 3.2394 12.0789C3.12252 12.1958 3.05339 12.3264 3.04191 12.348L3.04062 12.3505C3.01435 12.3989 2.99035 12.4489 2.97035 12.4924C2.92943 12.5813 2.88268 12.6919 2.83315 12.8137C2.733 13.06 2.60508 13.3923 2.46099 13.7766C2.172 14.5472 1.8081 15.553 1.45203 16.5553C1.09578 17.558 0.745702 18.562 0.484171 19.33C0.353625 19.7134 0.243878 20.0417 0.166156 20.2829C0.127599 20.4026 0.0948948 20.5071 0.0710363 20.5886C0.0593926 20.6284 0.047278 20.6715 0.0372237 20.712C0.0323163 20.7318 0.0256164 20.7602 0.0195369 20.7922L0.0191873 20.794C0.0156491 20.8124 0 20.894 0 20.9941C0 21.2808 0.120157 21.537 0.304038 21.7171C0.461601 21.8714 0.629394 21.9357 0.716218 21.9628C0.884456 22.0154 1.03054 22.013 1.07756 22.012C1.20059 22.0094 1.32158 21.989 1.40133 21.9741C1.58008 21.9406 1.8088 21.8834 2.05066 21.8179C2.54351 21.6844 3.18991 21.489 3.82385 21.2909C4.46071 21.0918 5.09643 20.8865 5.57219 20.7313C5.75576 20.6713 5.91577 20.6188 6.04316 20.5768L10.8918 22.2633L15.734 20.5791C15.8743 20.6273 16.0537 20.6889 16.2607 20.7597C16.7717 20.9345 17.4518 21.1656 18.126 21.3903C18.7982 21.6143 19.4722 21.8347 19.9681 21.9864C20.2117 22.061 20.4316 22.125 20.591 22.164C20.6535 22.1793 20.7719 22.2076 20.8889 22.217C20.9224 22.2198 20.9848 22.2236 21.0609 22.218L21.063 22.2178C21.1096 22.2144 21.3121 22.1996 21.5239 22.0685C21.6502 21.9903 21.8147 21.8485 21.9162 21.6161C22.0204 21.3773 22.0131 21.1464 21.9713 20.9754C21.9418 20.8547 21.8935 20.7552 21.8456 20.6786C21.8247 20.6294 21.7937 20.5512 21.7522 20.4402C21.6674 20.2139 21.5542 19.8936 21.42 19.5042C21.1524 18.7273 20.8121 17.7068 20.4696 16.679L20.4683 16.6753C20.1273 15.6522 19.784 14.6223 19.5127 13.8348C19.3772 13.4415 19.2569 13.1008 19.1625 12.8487C19.1158 12.7241 19.0714 12.6103 19.0321 12.5186C19.0129 12.474 18.9895 12.4216 18.9633 12.3708L18.9623 12.3686C18.9519 12.3477 18.8808 12.205 18.7547 12.0789C18.652 11.9762 18.5418 11.9085 18.5005 11.8833C18.4406 11.8468 18.3772 11.8125 18.3186 11.7823C18.2002 11.7213 18.0573 11.6545 17.9075 11.5874C17.6056 11.452 17.2314 11.2957 16.8728 11.1496C16.7287 11.0909 16.5858 11.0333 16.4495 10.9788C16.8893 10.2629 17.378 9.27633 17.6243 8.13675C18.0278 6.26982 17.7693 4.00549 15.7037 1.97123L15.6728 1.94075L15.6393 1.91306C14.2674 0.778604 12.6709 0 10.8924 0ZM6.11549 7.71419C5.83435 6.41357 5.98172 4.89518 7.45403 3.42649C8.58718 2.49829 9.73604 2 10.8924 2C12.0488 2 13.1978 2.49831 14.3309 3.42649C15.8032 4.89518 15.9506 6.41357 15.6694 7.71419C15.3729 9.08621 14.5873 10.2237 14.2168 10.6935C13.9548 11.0258 13.2391 11.7906 12.4041 12.6703C12.2381 12.845 12.0688 13.0231 11.8996 13.2009C11.5526 13.5656 11.2064 13.9294 10.8924 14.2628C10.5785 13.9295 10.2324 13.5658 9.88557 13.2012C9.71628 13.0233 9.54681 12.8451 9.38082 12.6703C8.54577 11.7906 7.83014 11.0258 7.56814 10.6935C7.19766 10.2237 6.41207 9.08621 6.11549 7.71419ZM13.7313 14.177C13.5999 14.3153 13.468 14.4539 13.3371 14.5915C12.8063 15.1494 12.2915 15.6905 11.8918 16.1223V19.7979L14.5936 18.8582L13.7313 14.177ZM9.89772 16.1274C9.49739 15.6948 8.98076 15.1518 8.44793 14.5917C8.31626 14.4533 8.18303 14.3133 8.0509 14.1742C8.05127 14.1753 8.05177 14.1761 8.05241 14.1768L7.19004 18.8582L9.89183 19.7979V16.1221C9.89387 16.1243 9.89583 16.126 9.89772 16.1274ZM5.87598 13.0018C6.00757 12.9481 6.13838 12.8954 6.26407 12.8451L5.17505 18.7569L4.95163 18.83C4.4803 18.9838 3.85323 19.1863 3.2273 19.3819C2.98133 19.4588 2.73726 19.534 2.50406 19.6045C2.74367 18.907 3.03766 18.0663 3.33663 17.2248C3.69088 16.2277 4.05045 15.234 4.33366 14.4788C4.47567 14.1001 4.59603 13.7879 4.6858 13.5672L4.71316 13.5005C4.76788 13.4745 4.83189 13.445 4.90474 13.4124C5.17506 13.2912 5.52428 13.145 5.87598 13.0018ZM16.6102 18.7654L15.5029 12.7545C15.6937 12.8302 15.9049 12.9149 16.1182 13.0018C16.4699 13.145 16.8191 13.2912 17.0894 13.4124C17.1568 13.4426 17.2166 13.4701 17.2686 13.4946L17.2896 13.5503C17.3744 13.7767 17.4876 14.0969 17.6218 14.4863C17.8894 15.2632 18.2296 16.2838 18.5722 17.3115L18.5735 17.3153C18.8515 18.1493 19.131 18.9879 19.3718 19.696C19.1722 19.6304 18.966 19.5621 18.7585 19.4929C18.091 19.2704 17.4162 19.0411 16.9078 18.8673L16.6102 18.7654Z" fill="#FF5757"/>
<path d="M13.6812 6.89309C13.6812 8.43305 12.4328 9.68144 10.8929 9.68144C9.35288 9.68144 8.10449 8.43305 8.10449 6.89309C8.10449 5.35313 9.35288 4.10474 10.8929 4.10474C12.4328 4.10474 13.6812 5.35313 13.6812 6.89309Z" stroke="#FF5757" stroke-width="2"/>
</svg>
